<svg width="5626" height="5012" viewBox="0 0 5626 5012" fill="none" xmlns="http://www.w3.org/2000/svg">
<path d="M2128.34 1181.78L2137.28 1143C2223.17 769.963 2595.35 536.637 2969.27 623.382L2969.29 623.388L2969.32 623.393C3325.9 705.806 3554.97 1050.25 3499.53 1405.76C3474.97 1559.32 3580.47 1703.34 3733.92 1726.77C3886.79 1750.1 4031.06 1646.3 4054.63 1492.5C4155.69 847.699 3741.56 224.644 3095.8 75.4878L3095.78 75.485C2419.63 -80.5329 1745.37 340.428 1589.31 1016.56C1488.04 1454.74 1629.6 1892.89 1925.8 2188.43L1281.33 3219.65L1279.25 3222.98L1277.66 3226.56C1240.77 3309.47 1235.22 3387.95 1256.06 3455.46C1276.84 3522.78 1322.46 3574.52 1379.21 3605.87C1492.68 3668.55 1650.12 3649.94 1753.83 3522.88L1756.07 3520.14L1757.94 3517.15L2534.23 2275.04C2534.25 2275 2534.28 2274.96 2534.3 2274.92C2574.06 2211.71 2587.06 2135.34 2569.4 2062.33C2552 1990.43 2507.8 1927.34 2444.47 1887.47L2444.38 1887.41L2444.28 1887.35C2210.53 1741.48 2079.76 1464.94 2128.34 1181.78ZM3258.2 1480.47L3249.31 1466.23L3234.05 1459.24C3115.68 1404.99 2995.16 1409.51 2904.78 1466.09C2813.45 1523.26 2762.07 1628.03 2773.31 1753.29L2774.51 1766.62L2781.6 1777.97L3557.99 3020.24L3558.04 3020.32L3558.09 3020.4C3597.96 3083.72 3661.06 3127.92 3732.96 3145.31C3806.58 3163.12 3882.67 3148.65 3945.04 3110.54L3945.27 3110.39L3945.51 3110.25C4213.6 2942.82 4571.18 2975.83 4804.61 3208.37C5075.22 3479.03 5075.19 3918.86 4804.54 4189.48C4572.1 4421.89 4213.65 4454.99 3945.51 4287.53C3814.19 4205.48 3641.12 4245.48 3558.18 4376.3C3474.63 4508.08 3516.27 4681.2 3646.76 4763.91L3646.86 4763.98L3646.97 4764.05C4131.82 5068.27 4779.53 5009.47 5201.6 4587.45C5692.3 4096.8 5692.3 3301.91 5201.6 2811.26C4850.1 2459.8 4342.37 2360.37 3902.71 2511.74L3258.2 1480.47ZM1196.77 2690.65L1196.4 2690.72C1136.42 2548.34 972.745 2480.84 829.163 2540.36L829.15 2540.37L829.138 2540.37C273.61 2771 -51.2997 3375.45 89.0434 3981.97C89.0459 3981.98 89.0484 3981.99 89.0508 3982C245.116 4658.13 919.371 5079.08 1595.52 4923.07L1595.53 4923.06L1595.55 4923.06C2080.05 4810.97 2432.91 4433.19 2537.81 3980.37H3923.34H3926.46L3929.55 3980.03C3984.4 3973.91 4028.27 3960.96 4061.61 3939.35C4096.7 3916.6 4116.92 3886.28 4126.48 3853.15C4135.37 3822.29 4134.29 3791.31 4132.39 3767.38C4131.55 3756.83 4130.65 3748.09 4129.86 3740.36C4128.54 3727.57 4127.5 3717.51 4127.5 3706.5L4127.5 3703.14C4127.52 3664.2 4127.55 3604.38 4104.57 3549.93C4078.61 3488.41 4026.16 3439.05 3935.04 3419.58L3929.26 3418.34H3923.34H2288.05C2213.4 3418.34 2141.89 3447.54 2089.05 3500.37C2036.21 3553.21 2007.01 3624.7 2007.01 3699.36C2007.01 4015.23 1789.95 4301.45 1469.12 4375.14C1095.05 4461.06 722.901 4228.51 637.015 3854.64L637.01 3854.62L637.005 3854.6C559.781 3519.71 738.511 3185.7 1045.55 3058.22L1045.61 3058.19L1045.67 3058.17C1188.56 2998.44 1256.4 2834.47 1196.77 2690.65ZM3083.19 130.049L3083.19 130.048L3083.19 130.049Z" fill="url(#paint0_linear_107_173)" stroke="url(#paint1_linear_107_173)" stroke-width="112"/>
<defs>
<linearGradient id="paint0_linear_107_173" x1="2813.04" y1="99.0117" x2="2813.04" y2="4899.54" gradientUnits="userSpaceOnUse">
<stop stop-color="#00FF94"/>
<stop offset="1" stop-color="#8FFF00"/>
</linearGradient>
<linearGradient id="paint1_linear_107_173" x1="2813.04" y1="99.0117" x2="2813.04" y2="4899.54" gradientUnits="userSpaceOnUse">
<stop stop-color="#00FF94"/>
<stop offset="1" stop-color="#8FFF00"/>
</linearGradient>
</defs>
</svg>
